<?xml version="1.0" standalone="no"?>
<!DOCTYPE svg PUBLIC "-//W3C//DTD SVG 20010904//EN"
 "http://www.w3.org/TR/2001/REC-SVG-20010904/DTD/svg10.dtd">
<svg version="1.0" xmlns="http://www.w3.org/2000/svg"
 width="584.000000pt" height="552.000000pt" viewBox="0 0 584.000000 552.000000"
 preserveAspectRatio="xMidYMid meet">
<metadata>
Created by potrace 1.16, written by Peter Selinger 2001-2019
</metadata>
<g transform="translate(0.000000,552.000000) scale(0.100000,-0.100000)"
fill="#000000" stroke="none">
<path d="M1535 5314 c-142 -20 -192 -30 -275 -56 -394 -125 -704 -422 -886
-847 -232 -542 -172 -1204 152 -1683 67 -100 -53 38 1192 -1365 971 -1093
1026 -1153 1084 -1182 83 -42 185 -44 268 -5 30 14 63 33 74 42 46 42 2127
2392 2176 2459 150 202 258 459 305 723 9 52 19 167 22 255 20 602 -251 1159
-711 1457 -439 283 -1000 272 -1466 -29 -131 -85 -234 -178 -385 -348 -76 -85
-142 -154 -146 -153 -3 2 -48 50 -99 108 -135 152 -206 224 -285 289 -188 156
-413 264 -646 311 -94 19 -309 33 -374 24z m321 -260 c218 -43 424 -150 591
-308 43 -40 170 -178 283 -305 113 -127 208 -231 211 -231 4 0 109 115 233
255 285 320 367 391 563 488 577 288 1211 50 1517 -569 239 -482 196 -1088
-107 -1527 -28 -41 -491 -570 -1027 -1174 -1247 -1405 -1145 -1293 -1180
-1293 -26 0 -140 125 -1052 1153 -563 633 -1046 1179 -1074 1212 -421 491
-453 1282 -72 1820 271 384 688 563 1114 479z"/>
</g>
</svg>
