<?xml version="1.0" standalone="no"?>
<!DOCTYPE svg PUBLIC "-//W3C//DTD SVG 20010904//EN"
 "http://www.w3.org/TR/2001/REC-SVG-20010904/DTD/svg10.dtd">
<svg version="1.0" xmlns="http://www.w3.org/2000/svg"
 width="584.000000pt" height="552.000000pt" viewBox="0 0 584.000000 552.000000"
 preserveAspectRatio="xMidYMid meet">
<metadata>
Created by potrace 1.10, written by Peter Selinger 2001-2011
</metadata>
<g transform="translate(0.000000,552.000000) scale(0.100000,-0.100000)"
fill="#000000" stroke="none">
<path d="M1141 5358 c-84 -10 -242 -58 -316 -96 -307 -154 -539 -478 -622
-865 -27 -125 -25 -429 4 -558 52 -234 155 -437 305 -605 35 -39 108 -122 163
-184 55 -63 121 -137 146 -165 25 -27 159 -178 299 -335 139 -157 266 -301
284 -320 17 -19 65 -73 106 -120 41 -47 91 -103 111 -125 93 -103 370 -416
425 -479 79 -91 134 -121 224 -121 94 1 130 24 248 157 91 103 581 655 656
738 17 19 79 89 137 155 59 66 169 190 244 275 76 85 168 188 204 229 36 41
115 129 174 195 197 219 278 346 346 538 95 273 97 620 5 898 -172 514 -639
846 -1115 790 -321 -37 -565 -178 -821 -477 -40 -46 -77 -82 -83 -81 -6 2 -45
41 -86 88 -265 302 -485 430 -809 470 -96 11 -125 11 -229 -2z m339 -209 c96
-24 256 -103 345 -172 40 -31 144 -136 246 -250 96 -109 180 -202 186 -208 7
-7 44 27 124 118 265 298 364 385 522 458 221 102 476 106 692 10 162 -71 315
-216 422 -400 101 -173 164 -441 149 -639 -23 -298 -117 -518 -318 -742 -66
-73 -654 -734 -723 -813 -40 -45 -508 -573 -569 -641 -242 -272 -269 -300
-291 -300 -16 0 -50 32 -121 112 -54 61 -159 179 -233 262 -74 83 -164 184
-200 225 -36 41 -109 122 -161 181 -52 59 -144 162 -205 231 -60 68 -126 142
-146 164 -170 188 -543 612 -593 674 -109 135 -186 311 -221 504 -25 140 -17
364 18 497 80 303 258 541 496 664 47 24 113 52 145 61 127 37 296 38 436 4z"/>
</g>
</svg>
